<?xml version="1.0" encoding="UTF-8" standalone="no"?>
<!-- Created with Inkscape (http://www.inkscape.org/) -->

<svg
   width="210mm"
   height="297mm"
   viewBox="0 0 210 297"
   version="1.1"
   id="svg2276"
   inkscape:version="1.1.1 (1:1.1+202109281949+c3084ef5ed)"
   sodipodi:docname="perfil.svg"
   xmlns:inkscape="http://www.inkscape.org/namespaces/inkscape"
   xmlns:sodipodi="http://sodipodi.sourceforge.net/DTD/sodipodi-0.dtd"
   xmlns="http://www.w3.org/2000/svg"
   xmlns:svg="http://www.w3.org/2000/svg">
  <sodipodi:namedview
     id="namedview2278"
     pagecolor="#ffffff"
     bordercolor="#666666"
     borderopacity="1.0"
     inkscape:pageshadow="2"
     inkscape:pageopacity="0.0"
     inkscape:pagecheckerboard="0"
     inkscape:document-units="mm"
     showgrid="false"
     showguides="false"
     inkscape:zoom="0.7071068"
     inkscape:cx="327.39043"
     inkscape:cy="591.84836"
     inkscape:window-width="1024"
     inkscape:window-height="684"
     inkscape:window-x="0"
     inkscape:window-y="0"
     inkscape:window-maximized="1"
     inkscape:current-layer="layer1" />
  <defs
     id="defs2273" />
  <g
     inkscape:label="Layer 1"
     inkscape:groupmode="layer"
     id="layer1">
    <g
       id="g3572"
       style="stroke:#2be5b5;stroke-width:2.7;stroke-miterlimit:4;stroke-dasharray:none;stroke-opacity:1"
       transform="translate(0.31340549,1.2269015)">
      <g
         id="g3563"
         style="stroke:#2be5b5;stroke-width:2.7;stroke-miterlimit:4;stroke-dasharray:none;stroke-opacity:1">
        <g
           id="g3419"
           style="stroke:#2be5b5;stroke-width:2.7;stroke-miterlimit:4;stroke-dasharray:none;stroke-opacity:1">
          <rect
             style="fill:#ff0000;fill-opacity:0;fill-rule:evenodd;stroke:#2be5b5;stroke-width:2.7;stroke-miterlimit:4;stroke-dasharray:none;stroke-opacity:1"
             id="rect2302"
             width="144.60461"
             height="144.60461"
             x="26.679302"
             y="39.772427" />
          <g
             id="g18023"
             style="stroke:#2be5b5;stroke-opacity:1">
            <circle
               style="fill:#0066ff;fill-opacity:0;stroke:#2be5b5;stroke-width:2.7;stroke-miterlimit:4;stroke-dasharray:none;stroke-opacity:1"
               id="path3435"
               cx="98.981613"
               cy="112.07473"
               r="72.302307" />
            <path
               style="fill:none;stroke:#2be5b5;stroke-width:2.7;stroke-linecap:butt;stroke-linejoin:miter;stroke-miterlimit:4;stroke-dasharray:none;stroke-opacity:1"
               d="m 127.94772,45.830587 c -6.45498,-2.472714 -16.19931,-3.13463 -20.72993,1.301959 -27.866777,27.288391 -15.762678,111.979154 9.54236,128.275554 28.73378,16.48871 26.39554,-42.24015 25.43902,-51.99478 -0.0899,-0.91654 -0.21451,-1.07199 -0.34034,-1.22265 -1.02258,-1.22438 -1.75907,0.54968 -1.85022,1.54912 -0.92343,10.12536 16.18171,50.46629 28.78426,7.15834"
               id="path3609"
               sodipodi:nodetypes="cscsssc" />
            <path
               style="fill:none;stroke:#2be5b5;stroke-width:2.8;stroke-linecap:butt;stroke-linejoin:miter;stroke-miterlimit:4;stroke-dasharray:none;stroke-opacity:1"
               d="M 94.779846,39.827394 C 65.931323,40.723366 68.973649,73.052976 65.589229,85.765853 59.222726,109.68031 38.487401,126.692 26.747359,116.83932 19.507824,109.33016 15.233555,89.582521 27.382078,98.109028 c 32.089095,22.521902 42.624448,68.456032 71.085516,83.108412 3.813356,2.06729 5.416066,3.21433 12.173876,2.21455"
               id="path1026"
               sodipodi:nodetypes="cscscc" />
            <path
               style="fill:none;stroke:#2be5b5;stroke-width:2.7;stroke-linecap:butt;stroke-linejoin:miter;stroke-miterlimit:4;stroke-dasharray:none;stroke-opacity:1"
               d="m 126.23185,123.50768 c 10.1304,17.90119 24.42116,-3.45449 30.57075,-13.74716 -0.43032,0.23868 -0.87168,0.50606 -1.33189,0.78319 -9.17244,5.52348 -20.33917,18.80482 -28.36801,13.41301 -0.27167,-0.18244 -0.58896,-0.28375 -0.87085,-0.44904 z"
               id="path13401"
               sodipodi:nodetypes="ccssc" />
          </g>
        </g>
      </g>
    </g>
    <path
       style="fill:#3e6ff4;fill-opacity:1;stroke:#3e6ff4;stroke-width:0.264583px;stroke-linecap:butt;stroke-linejoin:miter;stroke-opacity:1"
       d="m 29.128419,102.28185 c 0,0 3.44107,17.75505 -0.671933,14.95239 -0.481401,-0.32803 -0.865119,-0.5103 -2.814148,-3.51526 -2.506395,-3.86429 0.08616,-13.840179 0.08616,-13.840179 2.107009,1.287659 2.274438,1.507669 3.399921,2.403049 z"
       id="path18300"
       sodipodi:nodetypes="cssccc" />
  </g>
</svg>
